<svg width="25" height="24" viewBox="0 0 25 24" fill="none" xmlns="http://www.w3.org/2000/svg">
<g clip-path="url(#clip0_417_573)">
<path d="M24.579 12.1579C24.579 5.61768 19.2771 0.315796 12.7369 0.315796C6.19666 0.315796 0.894775 5.61768 0.894775 12.1579C0.894775 18.0685 5.22524 22.9678 10.8866 23.8561V15.581H7.87977V12.1579H10.8866V9.54894C10.8866 6.58101 12.6545 4.94162 15.3595 4.94162C16.6547 4.94162 18.0103 5.17291 18.0103 5.17291V8.08718H16.5171C15.0461 8.08718 14.5872 9.00008 14.5872 9.93751V12.1579H17.8715L17.3465 15.581H14.5872V23.8561C20.2485 22.9678 24.579 18.0685 24.579 12.1579Z" fill="white"/>
</g>
<defs>
<clipPath id="clip0_417_573">
<rect width="23.6842" height="23.6842" fill="white" transform="translate(0.894775 0.315796)"/>
</clipPath>
</defs>
</svg>
