<svg width="120" height="107" viewBox="0 0 120 107" fill="none" xmlns="http://www.w3.org/2000/svg">
<path d="M88.7423 106.107C76.2144 107.726 64.0867 106.703 51.5515 106.426C39.2274 106.157 26.2557 106.199 15.1174 100.311C-6.25706 89.019 1.29457 58.5507 1.29457 39.3179C1.29457 29.3749 1.87661 18.8992 8.95536 11.0442C16.1796 3.02581 27.7035 -0.141767 38.2016 0.0357872C52.9411 0.0357873 68.1826 -0.241198 82.9439 0.746005C94.0531 1.51304 105.497 5.36244 112.401 14.3893C118.701 22.6705 119.494 33.7285 119.676 43.6787C119.887 55.1203 120.724 67.0662 118.44 78.3516C115.755 91.6397 107.09 103.103 92.8236 105.475C91.4559 105.738 90.1027 105.929 88.7423 106.107Z" fill="#EED2D1"/>
<path d="M79.8711 58.6918C81.2752 58.6918 82.2998 57.3196 81.9203 55.928L77.5372 39.075C77.4424 38.6691 77.3285 38.2632 77.1957 37.8574L77.1767 37.8187C74.6531 29.7981 67.272 24 58.5627 24C47.7662 24 39 32.929 39 43.926C39 45.0856 39.0949 46.2259 39.2846 47.3276L42.9087 68.9544C43.3641 71.6988 43.459 74.5012 43.1934 77.2649L42.9846 79.4875C42.8518 80.8404 43.8954 82 45.2236 82L64.0653 82C65.1469 82 66.0766 81.2269 66.2854 80.1446L67.291 74.9264C67.4997 73.8441 68.4295 73.071 69.511 73.071L75.469 73.071C77.2147 73.071 78.6378 71.6408 78.6567 69.8627L78.8085 59.7547C78.8085 59.1943 79.2829 58.6918 79.8711 58.6918Z" fill="#50242D"/>
</svg>
