<svg width="25" height="24" viewBox="0 0 25 24" fill="none" xmlns="http://www.w3.org/2000/svg">
<g clip-path="url(#clip0_417_577)">
<path d="M12.4473 2.4483C15.6114 2.4483 15.9861 2.46218 17.2304 2.51769C18.3869 2.56857 19.0114 2.76286 19.4277 2.92476C19.9782 3.13755 20.376 3.39659 20.7877 3.80829C21.204 4.22462 21.4584 4.61781 21.6712 5.16828C21.8331 5.58461 22.0274 6.21372 22.0783 7.36555C22.1338 8.61452 22.1477 8.98921 22.1477 12.1487C22.1477 15.3127 22.1338 15.6874 22.0783 16.9318C22.0274 18.0882 21.8331 18.7127 21.6712 19.129C21.4584 19.6795 21.1994 20.0773 20.7877 20.489C20.3714 20.9053 19.9782 21.1598 19.4277 21.3725C19.0114 21.5344 18.3823 21.7287 17.2304 21.7796C15.9815 21.8351 15.6068 21.849 12.4473 21.849C9.28327 21.849 8.90858 21.8351 7.66423 21.7796C6.50777 21.7287 5.88329 21.5344 5.46696 21.3725C4.91649 21.1598 4.51867 20.9007 4.10697 20.489C3.69065 20.0727 3.43623 19.6795 3.22344 19.129C3.06154 18.7127 2.86725 18.0836 2.81637 16.9318C2.76086 15.6828 2.74698 15.3081 2.74698 12.1487C2.74698 8.98459 2.76086 8.6099 2.81637 7.36555C2.86725 6.20909 3.06154 5.58461 3.22344 5.16828C3.43623 4.61781 3.69527 4.21999 4.10697 3.80829C4.5233 3.39197 4.91649 3.13755 5.46696 2.92476C5.88329 2.76286 6.5124 2.56857 7.66423 2.51769C8.90858 2.46218 9.28327 2.4483 12.4473 2.4483ZM12.4473 0.315796C9.23238 0.315796 8.82994 0.329673 7.56709 0.385183C6.30886 0.440693 5.44384 0.644229 4.69445 0.935656C3.91269 1.24096 3.2512 1.64341 2.59433 2.3049C1.93284 2.96177 1.53039 3.62326 1.22508 4.4004C0.933658 5.15441 0.730122 6.01481 0.674612 7.27303C0.619102 8.54051 0.605225 8.94296 0.605225 12.1579C0.605225 15.3728 0.619102 15.7753 0.674612 17.0381C0.730122 18.2964 0.933658 19.1614 1.22508 19.9108C1.53039 20.6925 1.93284 21.354 2.59433 22.0109C3.2512 22.6678 3.91269 23.0748 4.68983 23.3755C5.44384 23.6669 6.30424 23.8705 7.56246 23.926C8.82531 23.9815 9.22776 23.9954 12.4427 23.9954C15.6577 23.9954 16.0601 23.9815 17.3229 23.926C18.5812 23.8705 19.4462 23.6669 20.1956 23.3755C20.9727 23.0748 21.6342 22.6678 22.2911 22.0109C22.9479 21.354 23.355 20.6925 23.6557 19.9154C23.9471 19.1614 24.1507 18.301 24.2062 17.0428C24.2617 15.7799 24.2756 15.3775 24.2756 12.1625C24.2756 8.94758 24.2617 8.54513 24.2062 7.28229C24.1507 6.02406 23.9471 5.15903 23.6557 4.40965C23.3643 3.62326 22.9618 2.96177 22.3003 2.3049C21.6435 1.64803 20.982 1.24096 20.2048 0.940282C19.4508 0.648855 18.5904 0.445319 17.3322 0.389809C16.0647 0.329673 15.6623 0.315796 12.4473 0.315796Z" fill="white"/>
<path d="M12.4475 6.07495C9.08911 6.07495 6.3645 8.79956 6.3645 12.1579C6.3645 15.5163 9.08911 18.2409 12.4475 18.2409C15.8058 18.2409 18.5304 15.5163 18.5304 12.1579C18.5304 8.79956 15.8058 6.07495 12.4475 6.07495ZM12.4475 16.1037C10.2687 16.1037 8.50163 14.3367 8.50163 12.1579C8.50163 9.97915 10.2687 8.21208 12.4475 8.21208C14.6262 8.21208 16.3933 9.97915 16.3933 12.1579C16.3933 14.3367 14.6262 16.1037 12.4475 16.1037Z" fill="white"/>
<path d="M20.1911 5.83425C20.1911 6.62064 19.5527 7.25438 18.771 7.25438C17.9846 7.25438 17.3508 6.61602 17.3508 5.83425C17.3508 5.04786 17.9892 4.41412 18.771 4.41412C19.5527 4.41412 20.1911 5.05249 20.1911 5.83425Z" fill="white"/>
</g>
<defs>
<clipPath id="clip0_417_577">
<rect width="23.6842" height="23.6842" fill="white" transform="translate(0.605225 0.315796)"/>
</clipPath>
</defs>
</svg>
