<svg width="25" height="24" viewBox="0 0 25 24" fill="none" xmlns="http://www.w3.org/2000/svg">
<g clip-path="url(#clip0_417_582)">
<path d="M22.3915 0.315796H2.20901C1.24221 0.315796 0.460449 1.07906 0.460449 2.02272V22.2885C0.460449 23.2321 1.24221 24 2.20901 24H22.3915C23.3583 24 24.1447 23.2321 24.1447 22.2931V2.02272C24.1447 1.07906 23.3583 0.315796 22.3915 0.315796ZM7.48707 20.4983H3.97145V9.19275H7.48707V20.4983ZM5.72926 7.65235C4.60056 7.65235 3.68927 6.74106 3.68927 5.61699C3.68927 4.49291 4.60056 3.58163 5.72926 3.58163C6.85334 3.58163 7.76462 4.49291 7.76462 5.61699C7.76462 6.73644 6.85334 7.65235 5.72926 7.65235ZM20.6429 20.4983H17.1319V15.0028C17.1319 13.6937 17.1088 12.0052 15.3047 12.0052C13.4775 12.0052 13.2 13.4346 13.2 14.9103V20.4983H9.69359V9.19275H13.0612V10.7378H13.1074C13.5747 9.84962 14.7219 8.91057 16.4288 8.91057C19.986 8.91057 20.6429 11.2512 20.6429 14.295V20.4983Z" fill="white"/>
</g>
<defs>
<clipPath id="clip0_417_582">
<rect width="23.6842" height="23.6842" fill="white" transform="translate(0.460449 0.315796)"/>
</clipPath>
</defs>
</svg>
