<svg width="199" height="28" viewBox="0 0 199 28" fill="none" xmlns="http://www.w3.org/2000/svg">
<path d="M142.17 16.275C142.17 14.9539 142.058 13.4059 141.505 12.2957C140.996 11.2175 140.16 10.3275 139.114 9.75292C137.926 9.14584 136.604 8.8488 135.27 8.88941C134.469 8.88359 133.671 8.99213 132.9 9.21174C132.188 9.41779 131.515 9.73908 130.908 10.1628C130.314 10.5731 129.794 11.0818 129.37 11.667C129.063 12.1053 128.805 12.5765 128.602 13.0717C128.386 13.595 128.224 14.139 128.119 14.6952C128.008 15.2882 127.953 15.8905 127.956 16.4939C127.953 17.0999 127.997 17.7052 128.088 18.3045C128.177 18.8491 128.323 19.3827 128.526 19.8962C128.71 20.3732 128.954 20.8251 129.251 21.2412C129.678 21.8507 130.219 22.3722 130.844 22.7772C131.49 23.1895 132.197 23.4958 132.94 23.6845C133.808 23.898 134.699 24.0009 135.593 23.9909C136.699 24.0056 137.797 23.7957 138.82 23.3741C140.568 22.6419 141.082 21.5118 141.584 20.7119L138.509 19.1879C138.386 19.5746 138.17 19.9252 137.879 20.2089C137.589 20.4927 137.233 20.701 136.844 20.8154C136.414 20.9691 135.961 21.0446 135.505 21.0383C134.897 21.0581 134.293 20.9369 133.74 20.6841C133.268 20.4535 132.858 20.1122 132.545 19.6893C132.266 19.2602 132.066 18.7844 131.956 18.2846C131.89 18.0054 131.842 17.7223 131.812 17.437H142.126C142.166 17.051 142.181 16.6629 142.17 16.275ZM138.473 14.9022H131.812C131.851 14.6056 131.919 14.3137 132.016 14.0307C132.123 13.714 132.275 13.414 132.466 13.1393C132.799 12.7414 133.205 12.4093 133.661 12.1604C134.148 11.891 134.697 11.7538 135.254 11.7625C136.298 11.7625 137.087 12.0278 137.62 12.5583C138.182 13.1858 138.488 14.0008 138.477 14.8425L138.473 14.9022Z" fill="white"/>
<path d="M159.945 4.44287H164.388V23.9917H159.945V4.44287Z" fill="white"/>
<path d="M109.296 4.44287H113.262V23.9917H109.296V4.44287ZM111.556 12.459H124.067V15.9221H111.556V12.459ZM122.217 4.44287H126.179V23.9917H122.217V4.44287Z" fill="white"/>
<path d="M166.165 9.52118V12.6602H176.828V9.52118H166.165ZM176.828 20.7131H174.325C174.115 20.7206 173.907 20.6775 173.717 20.5873C173.528 20.4972 173.363 20.3628 173.237 20.1954C173.082 20.0669 172.964 19.9014 172.892 19.7145C172.819 19.5276 172.796 19.3255 172.824 19.1272V4.44287H168.969V19.234C168.938 20.07 169.145 20.8976 169.567 21.6211C169.936 22.4026 170.563 23.0337 171.344 23.4084C172.278 23.8247 173.295 24.0228 174.317 23.9877H176.82L176.828 20.7131Z" fill="white"/>
<path d="M193.724 21.3259H195.627V21.8024H194.889V23.986H194.453V21.8024H193.711L193.724 21.3259ZM195.832 21.3259H196.5L196.997 23.7705L197.477 21.3259H198.154V23.9917H197.752V21.723L197.29 23.9917H196.692L196.255 21.723V23.9917H195.854L195.832 21.3259Z" fill="white"/>
<path d="M58.0451 23.1894C56.9883 22.6708 56.0817 21.9003 55.4085 20.9488C55.1476 20.5202 54.9238 20.071 54.7392 19.606C54.5518 19.119 54.4159 18.6145 54.3336 18.1004C54.2454 17.5538 54.2019 17.0011 54.2037 16.4478C54.201 15.8838 54.2445 15.3205 54.3336 14.7633C54.4144 14.254 54.5503 13.7546 54.7392 13.2736C54.9254 12.8131 55.1492 12.368 55.4085 11.9428C56.0834 10.9897 56.9893 10.2157 58.0451 9.69026C59.1897 9.13447 60.455 8.85909 61.7322 8.88777C62.9991 8.86456 64.2525 9.14553 65.3829 9.70614C66.4311 10.2344 67.3298 11.0082 67.9992 11.9586C68.418 12.602 68.7416 13.3001 68.9605 14.0324C69.1963 14.822 69.3138 15.641 69.3094 16.4636C69.3121 17.0177 69.2632 17.5709 69.1633 18.1163C69.066 18.6319 68.9152 19.1364 68.7131 19.6219C68.5186 20.0904 68.2795 20.54 67.9992 20.9647C67.3389 21.9159 66.4373 22.6826 65.3829 23.1894C64.2364 23.7177 62.985 23.9916 61.718 23.9916C60.451 23.9916 59.1996 23.7177 58.0532 23.1894H58.0451ZM63.4115 20.3489C63.9242 20.0795 64.3636 19.6941 64.6933 19.2246C64.8593 18.976 64.9954 18.7094 65.099 18.4301C65.206 18.118 65.2927 17.7995 65.3585 17.4767C65.4274 17.1406 65.4613 16.7985 65.4599 16.4557C65.4637 15.9418 65.3955 15.4299 65.2571 14.9342C65.1299 14.4839 64.9445 14.0513 64.7055 13.647C64.3695 13.1903 63.931 12.8152 63.4237 12.5506C62.9043 12.2812 62.3239 12.1446 61.7363 12.1533C61.1388 12.1375 60.5475 12.2744 60.0205 12.5506C59.5201 12.8249 59.0836 13.1983 58.7387 13.647C58.576 13.9115 58.4401 14.1909 58.3331 14.4813C58.2259 14.7911 58.1431 15.1085 58.0856 15.4307C58.0281 15.7695 57.9996 16.1123 58.0005 16.4557C57.9946 16.9684 58.0629 17.4793 58.2033 17.9732C58.3245 18.4124 58.5002 18.8353 58.7265 19.2326C59.0649 19.6944 59.5024 20.0781 60.0083 20.3568C60.5353 20.633 61.1266 20.7699 61.7241 20.7541C62.311 20.7653 62.8914 20.6314 63.4115 20.3648V20.3489Z" fill="white"/>
<path d="M81.07 9.13046C80.3576 8.90819 79.6094 8.83629 78.8697 8.91902C78.13 9.00175 77.4138 9.23743 76.7635 9.6121C75.3413 10.5466 74.7771 11.8763 74.3203 13.453C74.3 13.517 74.2606 13.5727 74.2078 13.6119C74.1549 13.6511 74.0913 13.6719 74.0263 13.6711C73.9899 13.6711 73.9541 13.6624 73.9215 13.6458C73.8889 13.6292 73.8604 13.605 73.8381 13.5752C73.8159 13.5454 73.8005 13.5108 73.7932 13.4739C73.7859 13.437 73.7868 13.3989 73.7959 13.3624C74.1296 12.078 74.4673 10.7977 74.801 9.51743H71.0864V23.9916H74.8527C74.8527 21.4558 74.8527 18.9281 74.8527 16.3923C74.8203 15.6665 74.8981 14.94 75.0831 14.2392C75.4208 13.1895 76.6444 12.6626 77.4667 12.5926C78.3863 12.5041 79.3114 12.6852 80.1364 13.1154L81.7494 9.43509C81.5384 9.30001 81.3095 9.1974 81.07 9.13046Z" fill="white"/>
<path d="M84.4228 23.6359C83.891 23.4789 83.4023 23.2098 82.9922 22.8482C82.5821 22.4866 82.2609 22.0415 82.0521 21.5454C81.5275 20.1583 81.6143 18.3937 82.8781 17.1735C84.142 15.9534 85.6371 15.854 87.0455 15.6831C88.4539 15.5122 93.2409 15.3214 93.2409 15.3214L92.675 17.6584C92.675 17.6584 89.4617 17.8213 88.4457 17.9247C86.7936 18.0996 86.2277 18.497 85.9675 19.1766C85.8269 19.5442 85.8385 19.9497 86 20.3092C86.1614 20.6688 86.4603 20.9548 86.8349 21.1082C87.6204 21.3545 88.4691 21.34 89.2449 21.0668C90.0208 20.7937 90.6789 20.2778 91.1138 19.6019C91.9351 18.3167 92.4119 16.8555 92.5016 15.3492C92.5016 13.525 91.9275 12.9248 91.2873 12.5155C89.9119 11.6451 86.3516 11.8716 86.3888 14.2046L82.3784 14.2324C82.2792 9.25246 88.8752 7.93295 92.96 9.52273C95.0871 10.3852 95.9668 12.7619 95.9668 14.9399V23.4491H92.0472L92.8981 19.9198C92.8611 19.8866 92.8175 19.8609 92.77 19.8443C92.7446 19.8349 92.7174 19.8305 92.6902 19.8315C92.6629 19.8324 92.6361 19.8386 92.6115 19.8497C92.5868 19.8609 92.5647 19.8767 92.5465 19.8962C92.5283 19.9158 92.5144 19.9387 92.5057 19.9635C91.9233 21.7481 91.0684 22.5668 90.1886 23.0954C89.3216 23.5719 88.3596 23.8664 87.3659 23.9596C86.3721 24.0527 85.3691 23.9424 84.4228 23.6359Z" fill="white"/>
<path d="M146.619 23.6321C146.088 23.4746 145.599 23.2051 145.189 22.8434C144.778 22.4817 144.456 22.0366 144.246 21.5404C143.722 20.1526 143.834 18.387 145.072 17.1661C146.31 15.9453 147.825 15.8459 149.236 15.6749C150.648 15.5039 155.427 15.313 155.427 15.313L154.862 17.6513C154.862 17.6513 151.651 17.8143 150.635 17.9177C148.984 18.0927 148.419 18.4904 148.159 19.1704C148.017 19.538 148.028 19.9442 148.19 20.3042C148.351 20.6642 148.651 20.9503 149.026 21.103C149.814 21.3596 150.67 21.3514 151.453 21.08C152.236 20.8085 152.9 20.2896 153.339 19.6078C154.158 18.3214 154.635 16.8597 154.725 15.3528C154.725 13.5275 154.152 12.9271 153.487 12.5175C152.117 11.6466 148.534 11.8733 148.596 14.2075L144.585 14.2354C144.49 9.25268 151.077 7.93243 155.159 9.52307C157.284 10.386 158.168 12.764 158.168 14.9432V23.4572H154.23L155.084 19.9259C155.046 19.8945 155.003 19.869 154.956 19.8504C154.931 19.8409 154.904 19.8365 154.877 19.8375C154.849 19.8384 154.823 19.8446 154.798 19.8558C154.773 19.8669 154.751 19.8828 154.733 19.9023C154.715 19.9219 154.701 19.9448 154.692 19.9697C154.106 21.7552 153.256 22.5743 152.377 23.1032C151.51 23.5775 150.549 23.8697 149.557 23.9609C148.565 24.052 147.564 23.94 146.619 23.6321Z" fill="white"/>
<path d="M97.7441 4.44287H102.187V23.9917H97.7441V4.44287Z" fill="white"/>
<path d="M178.633 4.44287H182.395V9.37322L181.492 12.9888C181.485 13.0167 181.485 13.0459 181.491 13.074C181.497 13.1021 181.509 13.1285 181.526 13.1511C181.543 13.1737 181.565 13.1919 181.59 13.2044C181.615 13.2168 181.642 13.2232 181.67 13.223H181.761C181.818 13.2233 181.874 13.2047 181.92 13.17C181.966 13.1353 182.001 13.0862 182.019 13.0299C182.266 12.2584 182.613 11.5257 183.052 10.8523C183.458 10.2293 184.015 9.72887 184.668 9.40196C185.335 9.0804 186.063 8.91891 186.798 8.92948C187.794 8.89358 188.783 9.12271 189.669 9.59508C190.437 10.0392 191.038 10.7381 191.376 11.5795C191.772 12.6096 191.961 13.7127 191.931 14.8212V23.9917H188.137V15.4745C188.196 14.6431 187.964 13.8175 187.483 13.149C187.23 12.874 186.921 12.6609 186.579 12.5252C186.236 12.3895 185.869 12.3345 185.503 12.3643C184.916 12.3499 184.338 12.5141 183.84 12.8368C183.364 13.1645 182.99 13.6283 182.763 14.1721C182.491 14.8195 182.356 15.5201 182.367 16.2264V23.9465H178.605L178.633 4.44287Z" fill="white"/>
<path d="M49.5488 17.2599C49.2852 17.865 48.9205 18.4228 48.4698 18.9101C47.4683 19.8652 46.1635 20.4547 44.7728 20.5803H44.1946C42.7437 20.4888 41.3736 19.8923 40.3307 18.8981C38.5759 17.0321 38.242 13.9635 39.0848 11.6261C39.1459 11.4582 39.2111 11.2944 39.2843 11.1386C39.2826 11.1307 39.2826 11.1225 39.2843 11.1146C39.7336 10.2499 40.407 9.51652 41.2368 8.98834C42.0667 8.46017 43.0237 8.15581 44.0114 8.10591H44.5245C45.6224 8.09849 46.6973 8.41535 47.6093 9.01534C48.5213 9.61533 49.2283 10.4707 49.6384 11.4702V11.5022C49.6384 11.5422 49.6668 11.5781 49.6791 11.6181L53.315 10.4194C53.1867 9.92464 53.001 9.44601 52.7613 8.99293C52.3956 8.33983 51.9423 7.7378 51.4136 7.20289C47.7491 3.55089 40.974 3.49495 37.3218 7.20289C36.8307 7.70002 36.4053 8.25578 36.0555 8.85709C35.2607 10.2885 34.7916 11.8721 34.6805 13.4987C34.5694 15.1252 34.8191 16.756 35.4123 18.2788C35.8406 19.3858 36.4898 20.3978 37.3218 21.2555C39.1255 23.1415 41.8535 24.0525 44.5448 23.9885H44.952C47.3949 23.8727 49.7728 22.9736 51.4014 21.2675C52.1696 20.5037 52.7539 19.5807 53.1114 18.5665L49.5488 17.2599Z" fill="white"/>
<path d="M20.0218 28H9.27156C8.05439 28.0011 6.84895 27.7623 5.72412 27.2972C4.59929 26.8322 3.57713 26.15 2.71607 25.2898C1.85502 24.4295 1.17196 23.4079 0.705918 22.2835C0.239878 21.1591 -4.81284e-07 19.9539 0 18.7367V6.47074C0 5.62099 0.167349 4.77956 0.492534 3.99449C0.817718 3.20943 1.29436 2.49608 1.89522 1.89522C2.49608 1.29436 3.2094 0.817744 3.99447 0.49256C4.77953 0.167375 5.62096 9.44817e-07 6.47071 9.44817e-07H7.06385C7.34082 -4.2062e-05 7.61356 0.0676983 7.85831 0.197321C8.10307 0.326944 8.3124 0.514504 8.468 0.743628C8.62359 0.972752 8.72074 1.23648 8.75097 1.51179C8.78119 1.7871 8.74354 2.06562 8.64136 2.32304L7.23681 5.85291C7.18701 5.97536 7.18319 6.11168 7.226 6.23674C7.26882 6.3618 7.35541 6.46715 7.46981 6.53339C7.58421 6.59962 7.71868 6.62226 7.84846 6.59711C7.97824 6.57197 8.09454 6.50074 8.17593 6.39658L11.3186 2.40952C11.9119 1.65797 12.6679 1.05071 13.5297 0.633366C14.3915 0.216025 15.3367 -0.000521977 16.2942 9.44817e-07H21.451C23.1879 9.44817e-07 24.8537 0.689973 26.0819 1.91815C27.31 3.14632 28 4.8121 28 6.549V9.34157C28.0003 10.8047 27.5374 12.2304 26.6777 13.4143C25.8179 14.5981 24.6054 15.4794 23.2139 15.9317L12.4348 19.441C12.3454 19.4651 12.269 19.5231 12.2218 19.6029C12.1747 19.6826 12.1607 19.7776 12.1828 19.8676C12.2048 19.9575 12.2613 20.0352 12.3399 20.0841C12.4186 20.1329 12.5133 20.149 12.6037 20.1289L25.5575 17.9294C25.8574 17.8785 26.1647 17.8936 26.4581 17.9736C26.7515 18.0536 27.0239 18.1966 27.2564 18.3926C27.4889 18.5887 27.6759 18.833 27.8043 19.1087C27.9327 19.3844 27.9995 19.6847 28 19.9888V20.0094C28.0011 22.1269 27.1613 24.1581 25.6652 25.6565C24.1691 27.1549 22.1392 27.9978 20.0218 28Z" fill="white"/>
</svg>
