<svg width="247" height="33" viewBox="0 0 247 33" fill="none" xmlns="http://www.w3.org/2000/svg">
<path d="M167.219 19.1815C167.219 17.6244 167.087 15.8 166.436 14.4915C165.838 13.2208 164.854 12.1719 163.625 11.4947C162.227 10.7792 160.672 10.4291 159.103 10.477C158.161 10.4701 157.222 10.598 156.315 10.8569C155.478 11.0997 154.687 11.4784 153.973 11.9778C153.273 12.4614 152.662 13.0609 152.164 13.7505C151.802 14.2672 151.499 14.8224 151.26 15.4061C151.006 16.0228 150.816 16.664 150.693 17.3195C150.561 18.0184 150.497 18.7283 150.501 19.4394C150.497 20.1536 150.549 20.867 150.655 21.5733C150.76 22.2152 150.933 22.8441 151.171 23.4493C151.387 24.0114 151.674 24.544 152.023 25.0344C152.526 25.7528 153.163 26.3674 153.898 26.8447C154.657 27.3307 155.489 27.6917 156.362 27.9141C157.383 28.1656 158.432 28.287 159.483 28.2752C160.784 28.2925 162.075 28.0451 163.278 27.5482C165.335 26.6853 165.939 25.3534 166.53 24.4107L162.913 22.6145C162.768 23.0702 162.514 23.4834 162.172 23.8179C161.831 24.1523 161.412 24.3977 160.954 24.5326C160.449 24.7138 159.916 24.8028 159.38 24.7953C158.665 24.8187 157.954 24.6758 157.304 24.3779C156.748 24.106 156.266 23.7038 155.898 23.2054C155.57 22.6997 155.335 22.1389 155.205 21.5499C155.127 21.2208 155.071 20.8871 155.036 20.5509H167.167C167.214 20.096 167.232 19.6386 167.219 19.1815ZM162.87 17.5634H155.036C155.082 17.214 155.162 16.8699 155.275 16.5363C155.402 16.1631 155.58 15.8095 155.805 15.4858C156.197 15.0168 156.674 14.6255 157.21 14.3321C157.783 14.0145 158.43 13.8528 159.085 13.8631C160.312 13.8631 161.24 14.1757 161.868 14.8011C162.528 15.5406 162.888 16.5012 162.875 17.4931L162.87 17.5634Z" fill="#231E1E"/>
<path d="M188.126 5.23633H193.352V28.276H188.126V5.23633Z" fill="#231E1E"/>
<path d="M128.553 5.23633H133.217V28.276H128.553V5.23633ZM131.211 14.6839H145.926V18.7654H131.211V14.6839ZM143.751 5.23633H148.41V28.276H143.751V5.23633Z" fill="#231E1E"/>
<path d="M195.442 11.2215V14.921H207.984V11.2215H195.442ZM207.984 24.412H205.04C204.793 24.4208 204.548 24.37 204.325 24.2637C204.102 24.1575 203.908 23.999 203.759 23.8018C203.578 23.6504 203.438 23.4553 203.354 23.235C203.269 23.0148 203.242 22.7766 203.274 22.5429V5.23633H198.74V22.6687C198.704 23.654 198.947 24.6294 199.443 25.4821C199.877 26.4031 200.615 27.147 201.533 27.5886C202.632 28.0792 203.828 28.3127 205.03 28.2713H207.974L207.984 24.412Z" fill="#231E1E"/>
<path d="M68.2722 27.3305C67.0293 26.7193 65.9629 25.8112 65.1711 24.6898C64.8643 24.1847 64.6009 23.6553 64.3838 23.1072C64.1635 22.5333 64.0036 21.9387 63.9068 21.3328C63.803 20.6885 63.7519 20.0372 63.754 19.385C63.7509 18.7204 63.8019 18.0565 63.9068 17.3998C64.0018 16.7996 64.1617 16.211 64.3838 15.644C64.6029 15.1013 64.8661 14.5768 65.1711 14.0756C65.9648 12.9523 67.0304 12.0401 68.2722 11.4208C69.6185 10.7658 71.1067 10.4412 72.609 10.4751C74.0991 10.4477 75.5733 10.7788 76.9029 11.4396C78.1358 12.0622 79.1929 12.9741 79.9801 14.0943C80.4727 14.8525 80.8534 15.6753 81.1108 16.5383C81.3881 17.469 81.5264 18.4342 81.5212 19.4037C81.5244 20.0568 81.4669 20.7087 81.3494 21.3515C81.2349 21.9591 81.0575 22.5538 80.8198 23.126C80.591 23.6781 80.3099 24.208 79.9801 24.7085C79.2035 25.8297 78.143 26.7332 76.9029 27.3305C75.5544 27.9532 74.0825 28.276 72.5923 28.276C71.102 28.276 69.6302 27.9532 68.2817 27.3305H68.2722ZM74.5842 23.9828C75.1871 23.6653 75.704 23.211 76.0918 22.6578C76.2871 22.3647 76.4472 22.0505 76.5689 21.7214C76.6948 21.3535 76.7967 20.9782 76.8742 20.5977C76.9552 20.2015 76.9951 19.7984 76.9935 19.3944C76.9979 18.7887 76.9176 18.1854 76.7549 17.6011C76.6052 17.0705 76.3872 16.5607 76.1061 16.0842C75.7109 15.5459 75.1952 15.1038 74.5985 14.7919C73.9876 14.4744 73.3049 14.3134 72.6138 14.3237C71.911 14.305 71.2155 14.4664 70.5957 14.7919C70.0071 15.1152 69.4937 15.5553 69.088 16.0842C68.8966 16.3958 68.7368 16.7252 68.6109 17.0674C68.4848 17.4325 68.3875 17.8066 68.3199 18.1864C68.2522 18.5856 68.2187 18.9897 68.2197 19.3944C68.2129 19.9986 68.2932 20.6008 68.4583 21.1829C68.6008 21.7005 68.8075 22.199 69.0737 22.6671C69.4717 23.2114 69.9863 23.6637 70.5813 23.9922C71.2012 24.3176 71.8967 24.479 72.5994 24.4604C73.2898 24.4736 73.9724 24.3158 74.5842 24.0015V23.9828Z" fill="#231E1E"/>
<path d="M95.354 10.7611C94.516 10.4991 93.636 10.4144 92.7659 10.5119C91.8959 10.6094 91.0535 10.8871 90.2887 11.3287C88.6159 12.4301 87.9523 13.9972 87.415 15.8555C87.3911 15.9309 87.3448 15.9965 87.2826 16.0428C87.2204 16.089 87.1456 16.1134 87.0692 16.1126C87.0264 16.1125 86.9843 16.1023 86.9459 16.0827C86.9075 16.0631 86.874 16.0347 86.8479 15.9996C86.8217 15.9644 86.8036 15.9236 86.795 15.8801C86.7864 15.8366 86.7875 15.7917 86.7982 15.7487C87.1907 14.2349 87.5879 12.7261 87.9804 11.2171H83.6113V28.276H88.0411C88.0411 25.2873 88.0411 22.3083 88.0411 19.3196C88.0031 18.4643 88.0945 17.608 88.3121 16.7821C88.7093 15.5449 90.1485 14.9239 91.1158 14.8414C92.1974 14.7371 93.2855 14.9506 94.2559 15.4576L96.153 11.1201C95.9048 10.9609 95.6356 10.84 95.354 10.7611Z" fill="#231E1E"/>
<path d="M99.2976 27.8568C98.6721 27.6718 98.0973 27.3546 97.6149 26.9284C97.1325 26.5022 96.7548 25.9776 96.5092 25.3929C95.8922 23.7582 95.9942 21.6784 97.4808 20.2404C98.9673 18.8023 100.726 18.6852 102.382 18.4838C104.039 18.2824 109.669 18.0575 109.669 18.0575L109.004 20.8118C109.004 20.8118 105.224 21.0039 104.029 21.1257C102.086 21.3318 101.421 21.8002 101.115 22.6012C100.949 23.0344 100.963 23.5123 101.153 23.936C101.343 24.3598 101.694 24.6969 102.135 24.8777C103.059 25.168 104.057 25.1509 104.969 24.829C105.882 24.507 106.656 23.899 107.167 23.1024C108.133 21.5877 108.694 19.8655 108.8 18.0903C108.8 15.9403 108.125 15.233 107.372 14.7505C105.754 13.7247 101.566 13.9917 101.61 16.7413L96.893 16.7741C96.7764 10.9049 104.535 9.34973 109.339 11.2234C111.841 12.2398 112.876 15.041 112.876 17.6079V27.6366H108.265L109.266 23.4771C109.223 23.438 109.171 23.4077 109.116 23.3881C109.086 23.377 109.054 23.3719 109.022 23.373C108.99 23.3741 108.958 23.3814 108.929 23.3945C108.9 23.4076 108.874 23.4263 108.853 23.4493C108.831 23.4724 108.815 23.4993 108.805 23.5286C108.12 25.6318 107.114 26.5968 106.079 27.2197C105.06 27.7813 103.928 28.1284 102.759 28.2382C101.59 28.348 100.411 28.218 99.2976 27.8568Z" fill="#231E1E"/>
<path d="M172.453 27.8523C171.827 27.6666 171.252 27.3491 170.77 26.9228C170.287 26.4964 169.908 25.9719 169.661 25.3871C169.045 23.7514 169.176 21.6705 170.632 20.2317C172.088 18.7929 173.87 18.6757 175.53 18.4742C177.19 18.2727 182.812 18.0477 182.812 18.0477L182.147 20.8035C182.147 20.8035 178.37 20.9957 177.176 21.1175C175.234 21.3237 174.569 21.7924 174.263 22.5938C174.097 23.0272 174.11 23.5058 174.3 23.9301C174.49 24.3544 174.842 24.6916 175.283 24.8716C176.21 25.1739 177.216 25.1644 178.137 24.8444C179.058 24.5244 179.84 23.9129 180.356 23.1094C181.319 21.5933 181.88 19.8705 181.987 18.0946C181.987 15.9433 181.312 15.2357 180.53 14.7529C178.919 13.7265 174.705 13.9937 174.778 16.7448L170.059 16.7776C169.948 10.9051 177.695 9.3491 182.496 11.2238C184.996 12.2408 186.035 15.0435 186.035 17.6118V27.6461H181.404L182.409 23.4843C182.364 23.4472 182.313 23.4172 182.258 23.3952C182.229 23.3841 182.197 23.379 182.165 23.3801C182.133 23.3812 182.101 23.3885 182.072 23.4016C182.043 23.4148 182.017 23.4334 181.996 23.4565C181.974 23.4796 181.958 23.5065 181.948 23.5358C181.258 25.6402 180.258 26.6057 179.224 27.229C178.205 27.7879 177.075 28.1324 175.908 28.2398C174.74 28.3472 173.563 28.2152 172.453 27.8523Z" fill="#231E1E"/>
<path d="M114.966 5.23633H120.192V28.276H114.966V5.23633Z" fill="#231E1E"/>
<path d="M210.106 5.23633H214.531V11.0471L213.469 15.3083C213.461 15.3413 213.461 15.3756 213.468 15.4087C213.475 15.4419 213.489 15.473 213.509 15.4996C213.529 15.5262 213.555 15.5477 213.585 15.5624C213.614 15.5771 213.646 15.5846 213.679 15.5843H213.786C213.853 15.5847 213.919 15.5628 213.973 15.5219C214.028 15.481 214.068 15.4231 214.089 15.3567C214.379 14.4475 214.788 13.584 215.304 12.7903C215.782 12.056 216.437 11.4663 217.205 11.081C217.989 10.702 218.846 10.5117 219.711 10.5241C220.882 10.4818 222.045 10.7519 223.088 11.3086C223.99 11.832 224.697 12.6558 225.095 13.6474C225.561 14.8614 225.783 16.1615 225.747 17.468V28.276H221.285V18.2379C221.354 17.258 221.081 16.285 220.516 15.4972C220.219 15.1731 219.855 14.9219 219.452 14.7619C219.049 14.602 218.617 14.5372 218.188 14.5723C217.497 14.5553 216.817 14.7489 216.231 15.1292C215.672 15.5154 215.231 16.062 214.964 16.7029C214.644 17.4659 214.485 18.2916 214.499 19.1241V28.2227H210.074L210.106 5.23633Z" fill="#231E1E"/>
<path d="M58.2789 20.3421C57.9689 21.0553 57.54 21.7126 57.0098 22.287C55.8319 23.4127 54.2972 24.1074 52.6615 24.2554H51.9814C50.2748 24.1476 48.6633 23.4446 47.4367 22.2729C45.3727 20.0737 44.98 16.4571 45.9713 13.7022C46.0432 13.5044 46.1198 13.3114 46.206 13.1277C46.2039 13.1184 46.2039 13.1088 46.206 13.0994C46.7344 12.0803 47.5264 11.216 48.5025 10.5935C49.4785 9.971 50.6041 9.6123 51.766 9.55348H52.3694C53.6608 9.54473 54.925 9.91817 55.9977 10.6253C57.0704 11.3324 57.9019 12.3405 58.3843 13.5186V13.5562C58.3843 13.6033 58.4178 13.6457 58.4322 13.6928L62.7087 12.2801C62.5579 11.697 62.3393 11.1329 62.0574 10.5989C61.6273 9.82917 61.0941 9.11963 60.4723 8.48921C56.1622 4.18506 48.1934 4.11913 43.8977 8.48921C43.3201 9.07511 42.8197 9.73012 42.4083 10.4388C41.4734 12.1259 40.9216 13.9922 40.791 15.9092C40.6604 17.8262 40.954 19.7483 41.6517 21.5429C42.1555 22.8477 42.9191 24.0404 43.8977 25.0512C46.0192 27.2739 49.2278 28.3476 52.3933 28.2723H52.8722C55.7456 28.1357 58.5424 27.0762 60.4579 25.0654C61.3615 24.1651 62.0488 23.0774 62.4693 21.882L58.2789 20.3421Z" fill="#231E1E"/>
<path d="M23.5494 33H10.9051C9.47349 33.0013 8.05567 32.7198 6.73265 32.1718C5.40964 31.6237 4.20738 30.8197 3.19462 29.8058C2.18186 28.7919 1.37845 27.5879 0.830294 26.2627C0.282142 24.9375 -5.66082e-07 23.517 0 22.0825V7.62623C0 6.62474 0.196834 5.63305 0.579313 4.7078C0.961792 3.78254 1.52241 2.94181 2.22914 2.23365C2.93587 1.52549 3.77487 0.96377 4.69826 0.580517C5.62164 0.197263 6.61132 1.11353e-06 7.61079 1.11353e-06H8.30844C8.6342 -4.95731e-05 8.955 0.0797873 9.24287 0.232557C9.53075 0.385327 9.77697 0.60638 9.95998 0.876419C10.143 1.14646 10.2573 1.45729 10.2928 1.78175C10.3284 2.10622 10.2841 2.43448 10.1639 2.73787L8.51187 6.89807C8.45329 7.04238 8.4488 7.20305 8.49916 7.35044C8.54951 7.49784 8.65136 7.622 8.78592 7.70006C8.92047 7.77812 9.07864 7.8048 9.23128 7.77517C9.38392 7.74554 9.52072 7.66159 9.61645 7.53882L13.3128 2.8398C14.0107 1.95404 14.8999 1.23833 15.9135 0.746467C16.9271 0.254601 18.0389 -0.000615187 19.1651 1.11353e-06H25.2305C27.2734 1.11353e-06 29.2327 0.813183 30.6772 2.26067C32.1218 3.70816 32.9333 5.6714 32.9333 7.71846V11.0097C32.9337 12.7341 32.3893 14.4144 31.378 15.8097C30.3667 17.205 28.9406 18.2436 27.304 18.7767L14.6257 22.9126C14.5205 22.941 14.4306 23.0094 14.3752 23.1034C14.3198 23.1973 14.3033 23.3093 14.3293 23.4153C14.3552 23.5213 14.4216 23.6129 14.5141 23.6705C14.6067 23.7281 14.718 23.747 14.8244 23.7233L30.0605 21.1311C30.4132 21.0711 30.7747 21.0889 31.1198 21.1832C31.4649 21.2775 31.7853 21.446 32.0587 21.677C32.3322 21.9081 32.5521 22.1961 32.7032 22.521C32.8542 22.8459 32.9327 23.1998 32.9333 23.5582V23.5825C32.9346 26.0781 31.9468 28.472 30.1872 30.238C28.4275 32.004 26.0399 32.9974 23.5494 33Z" fill="#FF4E03"/>
</svg>
