<svg width="25" height="24" viewBox="0 0 25 24" fill="none" xmlns="http://www.w3.org/2000/svg">
<g clip-path="url(#clip0_417_575)">
<path d="M8.20057 21.7797C17.1358 21.7797 22.0244 14.3751 22.0244 7.95584C22.0244 7.74768 22.0197 7.53489 22.0105 7.32673C22.9615 6.639 23.7822 5.78715 24.434 4.81121C23.5483 5.20526 22.608 5.46261 21.6451 5.57447C22.6589 4.96675 23.418 4.01204 23.7817 2.88733C22.8279 3.45258 21.7849 3.85132 20.6972 4.06645C19.9644 3.28779 18.9955 2.77222 17.9402 2.59945C16.885 2.42669 15.8022 2.60636 14.8594 3.11068C13.9165 3.615 13.166 4.41589 12.7239 5.38951C12.2819 6.36314 12.1729 7.45527 12.4138 8.49707C10.4825 8.40015 8.59311 7.89845 6.86816 7.0245C5.1432 6.15055 3.62116 4.92385 2.40071 3.42393C1.78041 4.49339 1.5906 5.75892 1.86985 6.96331C2.1491 8.1677 2.87646 9.22057 3.9041 9.90794C3.13261 9.88345 2.37802 9.67573 1.70268 9.30196V9.36209C1.70198 10.4844 2.08998 11.5724 2.80072 12.441C3.51145 13.3096 4.50106 13.9052 5.60132 14.1267C4.88665 14.3222 4.13658 14.3507 3.40914 14.21C3.71961 15.1752 4.32368 16.0194 5.13703 16.6247C5.95038 17.2301 6.93244 17.5664 7.94615 17.5868C6.22517 18.9387 4.09927 19.6719 1.91084 19.6684C1.52274 19.6678 1.13502 19.644 0.749756 19.5972C2.97297 21.0235 5.55916 21.781 8.20057 21.7797Z" fill="white"/>
</g>
<defs>
<clipPath id="clip0_417_575">
<rect width="23.6842" height="23.6842" fill="white" transform="translate(0.75 0.315796)"/>
</clipPath>
</defs>
</svg>
