<svg width="24" height="24" viewBox="0 0 24 24" fill="none" xmlns="http://www.w3.org/2000/svg">
<g clip-path="url(#clip0_417_585)">
<path d="M23.7645 7.42117C23.7645 7.42117 23.5332 5.78825 22.8208 5.07125C21.9188 4.12758 20.9103 4.12296 20.4477 4.06745C17.1357 3.8269 12.1629 3.8269 12.1629 3.8269H12.1536C12.1536 3.8269 7.18088 3.8269 3.86879 4.06745C3.40621 4.12296 2.39778 4.12758 1.49575 5.07125C0.78337 5.78825 0.556705 7.42117 0.556705 7.42117C0.556705 7.42117 0.316162 9.34088 0.316162 11.256V13.0508C0.316162 14.9659 0.552079 16.8856 0.552079 16.8856C0.552079 16.8856 0.78337 18.5185 1.49112 19.2355C2.39316 20.1792 3.57737 20.1468 4.10471 20.2486C6.0013 20.429 12.1583 20.4845 12.1583 20.4845C12.1583 20.4845 17.1357 20.4752 20.4477 20.2393C20.9103 20.1838 21.9188 20.1792 22.8208 19.2355C23.5332 18.5185 23.7645 16.8856 23.7645 16.8856C23.7645 16.8856 24.0004 14.9705 24.0004 13.0508V11.256C24.0004 9.34088 23.7645 7.42117 23.7645 7.42117ZM9.71121 15.2296V8.573L16.1087 11.9128L9.71121 15.2296Z" fill="white"/>
</g>
<defs>
<clipPath id="clip0_417_585">
<rect width="23.6842" height="23.6842" fill="white" transform="translate(0.315918 0.315796)"/>
</clipPath>
</defs>
</svg>
